<svg width="200" height="42" viewBox="0 0 200 42" fill="none" xmlns="http://www.w3.org/2000/svg">
<path fill-rule="evenodd" clip-rule="evenodd" d="M35.9233 21.0861C34.8759 14.3818 30.419 10.0757 25.7582 8.23148C23.3478 7.27641 20.5579 6.70976 17.4147 7.13207C10.1934 8.09657 6.09001 13.1336 4.81003 18.2071C4.14376 20.847 4.1539 24.1471 5.66187 27.291C8.28769 32.7812 14.1328 35.6527 20.0177 34.2872C23.4839 33.4815 25.6917 31.5254 27.1187 29.0103C28.7274 26.1778 29.3392 21.0741 26.187 17.5501C23.5599 14.6058 17.421 12.968 13.7743 17.0211C12.4474 18.4932 11.3467 21.2851 12.5462 24.0029C13.5748 26.3347 16.2905 27.7365 18.6637 26.8637C20.0664 26.3519 20.8765 25.3513 20.8509 23.9332C20.8387 23.2668 20.6107 23.249 20.2717 23.824C20.0678 24.1671 19.689 24.5482 19.2583 24.7509C16.7643 25.9587 14.8795 23.8735 14.9409 21.5129C14.982 19.6115 16.5901 17.8933 18.9353 17.6455C21.3521 17.3844 23.6626 18.7788 24.6861 20.884C26.5988 24.8411 24.3206 29.5406 20.1216 31.0122C15.5508 32.6123 11.0902 30.3005 9.00906 26.7977C7.05648 23.517 7.41051 20.1882 8.43208 17.5369C9.86469 13.8189 13.6736 10.3086 19.3325 10.2038C24.733 10.1002 30.6566 13.2811 32.4305 20.288C33.0316 22.6542 32.9871 24.3913 32.6414 26.3547C32.0264 29.8538 30.4102 33.0516 27.1156 35.652C23.8633 38.2123 18.8124 39.4779 14.8541 38.8893C11.1567 38.3435 7.73415 36.7238 5.13304 34.1133C2.25135 31.2318 0.201874 27.0092 0.0156722 22.4352C-0.140129 18.6752 0.873211 14.88 2.72066 11.7933C4.47373 8.86151 7.88932 5.71828 11.7438 4.10933L13.9865 3.33561C22.9836 1.40851 30.4849 3.93928 35.5173 10.0061C38.2805 13.3482 40.2825 17.9881 40.5651 22.4554C40.5922 22.9266 37.3983 24.1391 35.9253 21.0868" fill="#2A3341"/>
<path d="M189.778 33.5379C186.698 33.5379 184.154 32.829 182.056 31.4556C179.958 30.0821 178.843 28.1327 178.664 25.696L183.217 24.9871C183.529 27.7783 186.207 29.7277 189.912 29.7277C193.081 29.7277 195.491 28.3543 195.491 26.4049C195.491 24.9428 193.929 23.9681 190.403 23.3922L186.743 22.7719C181.922 21.8415 179.825 19.9807 179.825 16.4807C179.825 12.2274 183.529 9.34766 188.84 9.34766C193.884 9.34766 197.767 11.9616 198.526 15.7275L194.152 16.7022C193.839 14.5756 191.652 13.0692 188.751 13.0692C186.207 13.0692 184.288 14.5313 184.288 16.1705C184.288 17.4554 185.538 18.2085 188.394 18.7845L192.099 19.4491C197.678 20.5124 199.999 22.4618 199.999 26.0061C199.999 30.3923 195.669 33.5379 189.778 33.5379Z" fill="#2A3341"/>
<path d="M171.297 32.6967V0H176.162V32.6967H171.297Z" fill="#2A3341"/>
<path d="M154.663 33.5382C149.664 33.5382 146.004 30.6584 146.004 26.671C146.004 22.8166 149.351 19.9811 155.823 19.2722L161.045 18.6962C162.25 18.5633 163.009 17.8988 163.009 16.8355C163.009 14.8418 160.733 13.2911 157.385 13.2911C153.815 13.2911 151.181 15.6835 150.914 17.9874L146.45 16.5253C146.897 12.6708 151.449 9.30371 157.475 9.30371C163.634 9.30371 167.74 12.7152 167.74 17.6772V32.6964H163.634L162.965 29.3736H162.92C161.268 31.9876 158.367 33.5382 154.663 33.5382ZM155.957 29.5951C160.019 29.5951 162.92 27.0255 162.92 23.4368V22.0191L156.627 22.728C152.654 23.1267 150.824 24.5444 150.824 26.3609C150.824 28.3103 152.967 29.5951 155.957 29.5951Z" fill="#2A3341"/>
<path d="M136.395 33.5831C131.708 33.5831 128.494 30.526 128.494 26.0956V13.9562H123.719V10.1903H128.494V3.67756L133.36 2.61426V10.1903H143.223V13.9562H133.36V25.431C133.36 27.8678 134.922 29.5957 137.109 29.5957C139.296 29.5957 141.304 28.045 141.884 25.3867L144.786 27.5577C143.893 31.2792 140.367 33.5831 136.395 33.5831Z" fill="#2A3341"/>
<path d="M116.192 9.34766C120.164 9.34766 122.842 12.0059 123.333 16.5693L119.182 17.8541C118.959 15.0629 117.397 13.3794 115.21 13.3794C111.862 13.3794 109.943 16.0819 109.943 20.6896V32.6961H105.078V10.1894H109.05L109.675 13.6895H109.72C110.97 10.9869 113.38 9.34766 116.192 9.34766Z" fill="#2A3341"/>
<path d="M89.8461 33.5825C82.3924 33.5825 77.5273 28.7534 77.5273 21.4431C77.5273 14.1329 82.3924 9.30371 89.8461 9.30371C97.2106 9.30371 102.165 14.1329 102.165 21.4431C102.165 28.7534 97.2106 33.5825 89.8461 33.5825ZM89.8461 29.4179C94.354 29.4179 97.3445 26.2723 97.3445 21.4431C97.3445 16.6139 94.4433 13.5126 89.8461 13.5126C85.2489 13.5126 82.3477 16.6139 82.3477 21.4431C82.3477 26.2723 85.3381 29.4179 89.8461 29.4179Z" fill="#2A3341"/>
<path d="M51.3984 42V10.1894H55.5047L56.1296 13.7338H56.1742C58.138 10.8983 60.9499 9.34766 64.3867 9.34766C70.7692 9.34766 75.4557 14.4427 75.4557 21.4428C75.4557 28.4429 70.7692 33.5379 64.4313 33.5379C60.9946 33.5379 58.2273 32.0315 56.3081 29.2403H56.2635V42H51.3984ZM63.3601 29.2846C67.511 29.2846 70.6353 25.8289 70.6353 21.4428C70.6353 16.968 67.4664 13.6009 63.3601 13.6009C59.1646 13.6009 56.0849 17.0566 56.0849 21.4428C56.0849 25.8289 59.1646 29.2846 63.3601 29.2846Z" fill="#2A3341"/>
</svg>
