<svg width="60" height="54" viewBox="0 0 60 54" fill="none" xmlns="http://www.w3.org/2000/svg">
<path d="M10.9057 21.9595H3.46635C2.54932 21.9595 1.66965 22.3229 1.01997 22.9701C0.370287 23.6172 0.00352703 24.4955 0 25.4125V49.6369C0.00351151 50.5552 0.369843 51.4348 1.01915 52.0841C1.66846 52.7334 2.5481 53.0998 3.46635 53.1033H10.9057C11.8239 53.0998 12.7035 52.7334 13.3529 52.0841C14.0022 51.4348 14.3685 50.5552 14.372 49.6369V25.4125C14.3685 24.4955 14.0017 23.6172 13.352 22.9701C12.7023 22.3229 11.8227 21.9595 10.9057 21.9595Z" fill="black"/>
<path d="M58.2059 22.5744C57.3447 21.3715 56.2076 20.3926 54.89 19.7199C53.5724 19.0472 52.1127 18.7002 50.6333 18.7081H38.3411C39.9059 13.2895 39.3482 7.47833 36.7812 2.45629C36.3298 1.54799 35.5801 0.822286 34.6576 0.40062C33.7351 -0.0210466 32.6958 -0.113094 31.7136 0.139884C30.7313 0.392862 29.8658 0.975515 29.2617 1.79034C28.6577 2.60517 28.3519 3.60273 28.3954 4.61609C28.8604 9.43617 27.5989 14.2648 24.8357 18.2415L24.3157 18.9881L19.1829 25.0009C18.5865 25.71 18.2606 26.6074 18.263 27.534V49.6386C18.263 50.5579 18.6282 51.4396 19.2782 52.0897C19.9283 52.7397 20.81 53.1049 21.7293 53.1049H47.4869C48.8673 53.1062 50.2127 52.6711 51.3309 51.8617C52.4491 51.0524 53.2829 49.9103 53.713 48.5987L59.5125 31.0136C59.9886 29.6055 60.1185 28.1033 59.8911 26.6343C59.6636 25.1653 59.0856 23.7727 58.2059 22.5744Z" fill="black"/>
</svg>
