<svg width="30" height="30" viewBox="0 0 30 30" fill="none" xmlns="http://www.w3.org/2000/svg">
<path d="M23.355 7.49167L16.425 3.49C15.2933 2.83667 13.8933 2.83667 12.75 3.49L5.83167 7.49167C4.7 8.145 4 9.35833 4 10.6767V18.6567C4 19.9633 4.7 21.1767 5.83167 21.8417L12.7617 25.8433C13.8933 26.4967 15.2933 26.4967 16.4367 25.8433L23.3667 21.8417C24.4983 21.1883 25.1983 19.975 25.1983 18.6567V10.6767C25.1867 9.35833 24.4867 8.15667 23.355 7.49167ZM14.5933 9.23C16.0983 9.23 17.3117 10.4433 17.3117 11.9483C17.3117 13.4533 16.0983 14.6667 14.5933 14.6667C13.0883 14.6667 11.875 13.4533 11.875 11.9483C11.875 10.455 13.0883 9.23 14.5933 9.23ZM17.72 20.1033H11.4667C10.5217 20.1033 9.97333 19.0533 10.4983 18.2717C11.2917 17.0933 12.8317 16.3 14.5933 16.3C16.355 16.3 17.895 17.0933 18.6883 18.2717C19.2133 19.0417 18.6533 20.1033 17.72 20.1033Z" fill="white"/>
</svg>
