<svg width="30" height="30" viewBox="0 0 30 30" fill="none" xmlns="http://www.w3.org/2000/svg">
<path d="M21.1242 9.73167C21.0425 9.72 20.9608 9.72 20.8792 9.73167C19.0708 9.67333 17.6358 8.19167 17.6358 6.37167C17.6358 4.51667 19.1408 3 21.0075 3C22.8625 3 24.3792 4.505 24.3792 6.37167C24.3675 8.19167 22.9325 9.67333 21.1242 9.73167Z" fill="white"/>
<path d="M24.9275 17.8167C23.6208 18.6917 21.7892 19.0183 20.0975 18.7967C20.5408 17.84 20.7742 16.7783 20.7858 15.6583C20.7858 14.4917 20.5292 13.3833 20.0392 12.415C21.7658 12.1817 23.5975 12.5083 24.9158 13.3833C26.7592 14.5967 26.7592 16.5917 24.9275 17.8167Z" fill="white"/>
<path d="M8.18583 9.73167C8.2675 9.72 8.34917 9.72 8.43083 9.73167C10.2392 9.67333 11.6742 8.19167 11.6742 6.37167C11.6742 4.505 10.1692 3 8.3025 3C6.4475 3 4.9425 4.505 4.9425 6.37167C4.9425 8.19167 6.3775 9.67333 8.18583 9.73167Z" fill="white"/>
<path d="M8.31417 15.6583C8.31417 16.79 8.55917 17.8633 9.0025 18.8317C7.3575 19.0067 5.6425 18.6567 4.3825 17.8283C2.53917 16.6033 2.53917 14.6083 4.3825 13.3833C5.63083 12.5433 7.3925 12.205 9.04917 12.3917C8.57083 13.3717 8.31417 14.48 8.31417 15.6583Z" fill="white"/>
<path d="M14.8125 19.1817C14.7192 19.17 14.6142 19.17 14.5092 19.1817C12.3625 19.1117 10.6475 17.35 10.6475 15.18C10.6592 12.9633 12.4442 11.1667 14.6725 11.1667C16.8892 11.1667 18.6858 12.9633 18.6858 15.18C18.6742 17.35 16.9708 19.1117 14.8125 19.1817Z" fill="white"/>
<path d="M11.0208 21.5967C9.25917 22.775 9.25917 24.7117 11.0208 25.8783C13.0275 27.22 16.3175 27.22 18.3242 25.8783C20.0858 24.7 20.0858 22.7633 18.3242 21.5967C16.3292 20.255 13.0392 20.255 11.0208 21.5967Z" fill="white"/>
</svg>
