<svg width="30" height="30" viewBox="0 0 30 30" fill="none" xmlns="http://www.w3.org/2000/svg">
<path d="M15.4833 20.3574H16.3C17.6417 20.3574 18.7383 19.2607 18.7383 17.919V17.1024H15.4833V20.3574Z" fill="white"/>
<path d="M10.595 17.919C10.595 19.2607 11.6917 20.3574 13.0333 20.3574H13.85V17.1024H10.595V17.919Z" fill="white"/>
<path d="M10.595 14.664V15.4807H13.85V12.2257H13.0333C11.6917 12.2257 10.595 13.3224 10.595 14.664Z" fill="white"/>
<path d="M24.035 8.6207L17.3267 3.91903C15.495 2.6357 12.695 2.7057 10.9333 4.0707L5.08833 8.63236C3.91 9.54236 3 11.409 3 12.879V20.929C3 23.904 5.415 26.3307 8.37833 26.3307H20.9433C23.9067 26.3307 26.3217 23.9157 26.3217 20.9407V13.0307C26.3333 11.4557 25.3183 9.51903 24.035 8.6207ZM20.36 17.919C20.36 20.159 18.5283 21.9907 16.2883 21.9907H13.0333C10.7933 21.9907 8.96167 20.1707 8.96167 17.919V14.664C8.96167 12.424 10.7933 10.5924 13.0333 10.5924H16.2883C18.5283 10.5924 20.36 12.4124 20.36 14.664V17.919Z" fill="white"/>
<path d="M16.3 12.2257H15.4833V15.4807H18.7383V14.664C18.7383 13.3224 17.6417 12.2257 16.3 12.2257Z" fill="white"/>
</svg>
