<svg width="30" height="30" viewBox="0 0 30 30" fill="none" xmlns="http://www.w3.org/2000/svg">
<path d="M22.3867 14.1183C21.7217 13.9433 20.94 13.85 20.0067 13.85C18.7117 13.85 18.2333 14.165 17.5683 14.6667C17.5333 14.69 17.4983 14.725 17.4633 14.76L16.355 15.9383C15.4217 16.9183 13.7417 16.93 12.8083 15.9267L11.7 14.76C11.665 14.725 11.63 14.69 11.595 14.6667C10.93 14.165 10.4517 13.85 9.15667 13.85C8.22333 13.85 7.44167 13.9433 6.77667 14.1183C4 14.865 4 17.07 4 19.0067V20.0917C4 23.02 4 26.3333 10.2417 26.3333H18.9217C23.0633 26.3333 25.1633 24.2333 25.1633 20.0917V19.0067C25.1633 17.07 25.1633 14.865 22.3867 14.1183ZM17.3 22.1333H11.8633C11.42 22.1333 11.0583 21.7717 11.0583 21.3167C11.0583 20.8617 11.42 20.5 11.8633 20.5H17.3C17.7433 20.5 18.105 20.8617 18.105 21.3167C18.105 21.7717 17.7433 22.1333 17.3 22.1333Z" fill="white"/>
<path d="M22.9933 8.15667V12.4733C22.9467 12.45 22.8883 12.4383 22.8417 12.4267C22.025 12.205 21.1033 12.1 20.0067 12.1C18.21 12.1 17.37 12.625 16.5067 13.2783C16.39 13.36 16.285 13.465 16.1917 13.5583L15.0717 14.7367C14.9667 14.8533 14.78 14.9233 14.5817 14.9233C14.3833 14.9233 14.1967 14.8533 14.08 14.725L12.9833 13.57C12.8783 13.4533 12.7617 13.3483 12.645 13.2667C11.805 12.625 10.9533 12.1 9.15667 12.1C8.06 12.1 7.13833 12.205 6.32167 12.4267C6.275 12.4383 6.21667 12.45 6.17 12.4733V8.15667C6.17 5.74167 6.17 3 11.3267 3H17.8367C22.9933 3 22.9933 5.74167 22.9933 8.15667Z" fill="white"/>
</svg>
