<svg width="30" height="30" viewBox="0 0 30 30" fill="none" xmlns="http://www.w3.org/2000/svg">
<path d="M24 9.41667C25.7719 9.41667 27.2083 7.98025 27.2083 6.20833C27.2083 4.43642 25.7719 3 24 3C22.2281 3 20.7917 4.43642 20.7917 6.20833C20.7917 7.98025 22.2281 9.41667 24 9.41667Z" fill="white"/>
<path d="M22.88 11.05C21.0483 10.6533 19.555 9.16 19.1583 7.32833C19.0067 6.61667 18.995 5.92833 19.1233 5.275C19.275 4.55167 18.7383 3.875 17.9917 3.875H8.83333C5.61333 3.875 3 6.48833 3 9.70833V17.8167C3 21.0367 5.61333 23.65 8.83333 23.65H10.5833C10.91 23.65 11.33 23.86 11.5167 24.1167L13.2667 26.4383C14.0367 27.465 15.2967 27.465 16.0667 26.4383L17.8167 24.1167C18.0383 23.825 18.3767 23.65 18.75 23.65H20.5117C23.7317 23.65 26.3333 21.0483 26.3333 17.8283V12.2167C26.3333 11.4817 25.6567 10.945 24.9333 11.085C24.28 11.2017 23.5917 11.2017 22.88 11.05ZM10 15.5417C9.34667 15.5417 8.83333 15.0167 8.83333 14.375C8.83333 13.7333 9.34667 13.2083 10 13.2083C10.6417 13.2083 11.1667 13.7333 11.1667 14.375C11.1667 15.0167 10.6533 15.5417 10 15.5417ZM14.6667 15.5417C14.0133 15.5417 13.5 15.0167 13.5 14.375C13.5 13.7333 14.0133 13.2083 14.6667 13.2083C15.3083 13.2083 15.8333 13.7333 15.8333 14.375C15.8333 15.0167 15.32 15.5417 14.6667 15.5417ZM19.3333 15.5417C18.68 15.5417 18.1667 15.0167 18.1667 14.375C18.1667 13.7333 18.68 13.2083 19.3333 13.2083C19.975 13.2083 20.5 13.7333 20.5 14.375C20.5 15.0167 19.9867 15.5417 19.3333 15.5417Z" fill="white"/>
</svg>
