<svg width="24" height="24" viewBox="0 0 24 24" fill="none" xmlns="http://www.w3.org/2000/svg">
<path fill-rule="evenodd" clip-rule="evenodd" d="M12.9492 2C13.3392 2 13.6396 2.31998 13.6396 2.70996L13.6299 3.65039C13.6197 4.53027 12.8889 5.25977 11.999 5.25977C11.8493 5.25995 11.7598 5.36035 11.7598 5.49023C11.7598 5.61617 11.8534 5.71284 11.9775 5.71875H16.6504C19.6005 5.71875 22.001 8.11924 22.001 11.0693V16.6494C22.0008 19.5994 19.6004 21.999 16.6504 21.999H7.35059C4.40058 21.999 2.00016 19.5994 2 16.6494V11.0693C2 8.11924 4.40049 5.71875 7.35059 5.71875H10.3789C10.369 5.64912 10.3594 5.56966 10.3594 5.49023C10.3594 4.5902 11.0895 3.86035 11.9795 3.86035C12.1295 3.86032 12.2295 3.75987 12.2295 3.62988L12.2393 2.69043C12.2493 2.31042 12.5594 2.00001 12.9395 2H12.9492ZM15.5 14.959C14.9502 14.9592 14.5001 15.4092 14.5 15.959V15.9795C14.5002 16.5292 14.9503 16.9685 15.5 16.9688C16.06 16.9688 16.501 16.509 16.501 15.959C16.5009 15.409 16.05 14.959 15.5 14.959ZM10.0898 11.9287C9.79985 11.6391 9.32018 11.639 9.03027 11.9287L8.04004 12.9189L7.08008 11.959C6.79012 11.6691 6.31052 11.6692 6.02051 11.959C5.73051 12.249 5.73054 12.7285 6.02051 13.0186L6.98047 13.9795L5.99023 14.9688C5.70022 15.2588 5.70022 15.7393 5.99023 16.0293C6.14022 16.1792 6.33056 16.249 6.52051 16.249C6.71028 16.2489 6.89994 16.179 7.0498 16.0293L8.04004 15.0391L9.07031 16.0693C9.22029 16.2192 9.41064 16.2891 9.60059 16.2891C9.79035 16.289 9.98001 16.219 10.1299 16.0693C10.4199 15.7793 10.4199 15.2988 10.1299 15.0088L9.10059 13.9795L10.0898 12.9893C10.3799 12.6992 10.3799 12.2187 10.0898 11.9287ZM13.5205 12.999C12.9705 12.999 12.5303 13.449 12.5303 13.999C12.5303 14.5489 12.9902 14.9988 13.54 14.999C14.1001 14.999 14.54 14.549 14.54 13.999C14.54 13.449 14.0901 12.999 13.54 12.999H13.5205ZM17.4609 12.999C16.9109 12.999 16.4707 13.449 16.4707 13.999C16.4707 14.549 16.9305 14.999 17.4805 14.999C18.0405 14.999 18.4805 14.549 18.4805 13.999C18.4805 13.449 18.0305 12.999 17.4805 12.999H17.4609ZM15.5 11.0186C14.9503 11.0188 14.5002 11.4689 14.5 12.0186V12.0391C14.5001 12.5889 14.9502 13.0291 15.5 13.0293C16.05 13.0293 16.501 12.5686 16.501 12.0186C16.5008 11.4687 16.0499 11.0186 15.5 11.0186Z" fill="white"/>
</svg>
