<svg width="30" height="30" viewBox="0 0 30 30" fill="none" xmlns="http://www.w3.org/2000/svg">
<path d="M26.3333 14.6667C26.3333 8.23833 21.095 3 14.6667 3C8.23833 3 3 8.23833 3 14.6667C3 18.05 4.45833 21.095 6.76833 23.23C6.76833 23.2417 6.76833 23.2417 6.75667 23.2533C6.87333 23.37 7.01333 23.4633 7.13 23.5683C7.2 23.6267 7.25833 23.685 7.32833 23.7317C7.53833 23.9067 7.77167 24.07 7.99333 24.2333C8.075 24.2917 8.145 24.3383 8.22667 24.3967C8.44833 24.5483 8.68167 24.6883 8.92667 24.8167C9.00833 24.8633 9.10167 24.9217 9.18333 24.9683C9.41667 25.0967 9.66167 25.2133 9.91833 25.3183C10.0117 25.365 10.105 25.4117 10.1983 25.4467C10.455 25.5517 10.7117 25.645 10.9683 25.7267C11.0617 25.7617 11.155 25.7967 11.2483 25.82C11.5283 25.9017 11.8083 25.9717 12.0883 26.0417C12.17 26.065 12.2517 26.0883 12.345 26.1C12.6717 26.17 12.9983 26.2167 13.3367 26.2517C13.3833 26.2517 13.43 26.2633 13.4767 26.275C13.8733 26.31 14.27 26.3333 14.6667 26.3333C15.0633 26.3333 15.46 26.31 15.845 26.275C15.8917 26.275 15.9383 26.2633 15.985 26.2517C16.3233 26.2167 16.65 26.17 16.9767 26.1C17.0583 26.0883 17.14 26.0533 17.2333 26.0417C17.5133 25.9717 17.805 25.9133 18.0733 25.82C18.1667 25.785 18.26 25.75 18.3533 25.7267C18.61 25.6333 18.8783 25.5517 19.1233 25.4467C19.2167 25.4117 19.31 25.365 19.4033 25.3183C19.6483 25.2133 19.8933 25.0967 20.1383 24.9683C20.2317 24.9217 20.3133 24.8633 20.395 24.8167C20.6283 24.6767 20.8617 24.5483 21.095 24.3967C21.1767 24.35 21.2467 24.2917 21.3283 24.2333C21.5617 24.07 21.7833 23.9067 21.9933 23.7317C22.0633 23.6733 22.1217 23.615 22.1917 23.5683C22.32 23.4633 22.4483 23.3583 22.565 23.2533C22.565 23.2417 22.565 23.2417 22.5533 23.23C24.875 21.095 26.3333 18.05 26.3333 14.6667ZM20.43 20.465C17.2683 18.3417 12.0883 18.3417 8.90333 20.465C8.39 20.8033 7.97 21.2 7.62 21.6317C5.84667 19.835 4.75 17.3733 4.75 14.6667C4.75 9.195 9.195 4.75 14.6667 4.75C20.1383 4.75 24.5833 9.195 24.5833 14.6667C24.5833 17.3733 23.4867 19.835 21.7133 21.6317C21.375 21.2 20.9433 20.8033 20.43 20.465Z" fill="white"/>
<path d="M14.6667 8.75167C12.2517 8.75167 10.2917 10.7117 10.2917 13.1267C10.2917 15.495 12.1467 17.42 14.6083 17.49C14.6433 17.49 14.69 17.49 14.7133 17.49C14.7367 17.49 14.7717 17.49 14.795 17.49C14.8067 17.49 14.8183 17.49 14.8183 17.49C17.175 17.4083 19.03 15.495 19.0417 13.1267C19.0417 10.7117 17.0817 8.75167 14.6667 8.75167Z" fill="white"/>
</svg>
